<svg width="65" height="69" viewBox="0 0 65 69" fill="none" xmlns="http://www.w3.org/2000/svg">
<g filter="url(#filter0_d_1558_11)">
<path d="M31 10.866C31.9282 10.3301 33.0718 10.3301 34 10.866L49.6195 19.884C50.5477 20.4199 51.1195 21.4103 51.1195 22.4821V40.518C51.1195 41.5897 50.5477 42.5801 49.6195 43.116L34 52.134C33.0718 52.6699 31.9282 52.6699 31 52.134L15.3805 43.116C14.4522 42.5801 13.8805 41.5897 13.8805 40.5179V22.482C13.8805 21.4103 14.4523 20.4199 15.3805 19.884L31 10.866Z" fill="white"/>
<path d="M31 10.866C31.9282 10.3301 33.0718 10.3301 34 10.866L49.6195 19.884C50.5477 20.4199 51.1195 21.4103 51.1195 22.4821V40.518C51.1195 41.5897 50.5477 42.5801 49.6195 43.116L34 52.134C33.0718 52.6699 31.9282 52.6699 31 52.134L15.3805 43.116C14.4522 42.5801 13.8805 41.5897 13.8805 40.5179V22.482C13.8805 21.4103 14.4523 20.4199 15.3805 19.884L31 10.866Z" fill="url(#paint0_radial_1558_11)"/>
<path d="M31 10.866C31.9282 10.3301 33.0718 10.3301 34 10.866L49.6195 19.884C50.5477 20.4199 51.1195 21.4103 51.1195 22.4821V40.518C51.1195 41.5897 50.5477 42.5801 49.6195 43.116L34 52.134C33.0718 52.6699 31.9282 52.6699 31 52.134L15.3805 43.116C14.4522 42.5801 13.8805 41.5897 13.8805 40.5179V22.482C13.8805 21.4103 14.4523 20.4199 15.3805 19.884L31 10.866Z" fill="url(#paint1_radial_1558_11)"/>
<path d="M31 10.866C31.9282 10.3301 33.0718 10.3301 34 10.866L49.6195 19.884C50.5477 20.4199 51.1195 21.4103 51.1195 22.4821V40.518C51.1195 41.5897 50.5477 42.5801 49.6195 43.116L34 52.134C33.0718 52.6699 31.9282 52.6699 31 52.134L15.3805 43.116C14.4522 42.5801 13.8805 41.5897 13.8805 40.5179V22.482C13.8805 21.4103 14.4523 20.4199 15.3805 19.884L31 10.866Z" fill="url(#paint2_radial_1558_11)"/>
</g>
<path d="M41 26.8684L38.3288 24L29.7581 33.2034L26.6712 29.8886L24 32.757L29.8071 39L41 26.8684Z" fill="white"/>
<defs>
<filter id="filter0_d_1558_11" x="0.880859" y="0.463867" width="63.2383" height="68.0723" filterUnits="userSpaceOnUse" color-interpolation-filters="sRGB">
<feFlood flood-opacity="0" result="BackgroundImageFix"/>
<feColorMatrix in="SourceAlpha" type="matrix" values="0 0 0 0 0 0 0 0 0 0 0 0 0 0 0 0 0 0 127 0" result="hardAlpha"/>
<feOffset dy="3"/>
<feGaussianBlur stdDeviation="6.5"/>
<feComposite in2="hardAlpha" operator="out"/>
<feColorMatrix type="matrix" values="0 0 0 0 0 0 0 0 0 0 0 0 0 0 0 0 0 0 0.25 0"/>
<feBlend mode="normal" in2="BackgroundImageFix" result="effect1_dropShadow_1558_11"/>
<feBlend mode="normal" in="SourceGraphic" in2="effect1_dropShadow_1558_11" result="shape"/>
</filter>
<radialGradient id="paint0_radial_1558_11" cx="0" cy="0" r="1" gradientUnits="userSpaceOnUse" gradientTransform="translate(1.43301 10) rotate(17.0205) scale(73.8019 113.732)">
<stop offset="0.0258909" stop-color="#43F5C9"/>
<stop offset="0.397005" stop-color="#FCFCFC"/>
<stop offset="0.952333" stop-color="#E2EDEA"/>
</radialGradient>
<radialGradient id="paint1_radial_1558_11" cx="0" cy="0" r="1" gradientUnits="userSpaceOnUse" gradientTransform="translate(56.058 55.3506) rotate(-134.249) scale(47.3815)">
<stop stop-color="#398B9C"/>
<stop offset="0.508047" stop-color="#AECED5"/>
<stop offset="0.828125" stop-color="#C3E1E8"/>
</radialGradient>
<radialGradient id="paint2_radial_1558_11" cx="0" cy="0" r="1" gradientUnits="userSpaceOnUse" gradientTransform="translate(13.487 44.5249) rotate(-36.7611) scale(46.1992 1218.92)">
<stop stop-color="#124651"/>
<stop offset="1" stop-color="#419AAB"/>
</radialGradient>
</defs>
</svg>
