<svg width="174" height="158" viewBox="0 0 174 158" fill="none" xmlns="http://www.w3.org/2000/svg">
<path d="M114.964 47.0351L71.7406 91.4649C71.2438 91.9759 70.8903 92.6086 70.7156 93.2996C70.541 93.9905 70.5513 94.7153 70.7456 95.4009L87.2234 153.395C88.6793 158.773 95.988 159.545 98.5223 154.578L172.958 9.15475C173.472 8.14864 173.695 7.01945 173.604 5.89346C173.513 4.76748 173.11 3.68913 172.441 2.77903C171.771 1.86892 170.862 1.16296 169.815 0.740121C168.767 0.317289 167.622 0.194248 166.509 0.384777L5.50911 28.0901C0.0172283 29.0351 -1.42438 36.2418 3.27053 39.2281L53.723 72.2384C54.3196 72.6283 55.0083 72.8541 55.7199 72.8934C56.4315 72.9326 57.1409 72.7837 57.7767 72.4618L113.07 44.447C113.414 44.2701 113.809 44.2214 114.185 44.3096C114.561 44.3979 114.893 44.6173 115.122 44.9284C115.351 45.2396 115.461 45.6221 115.433 46.0074C115.406 46.3926 115.241 46.7553 114.97 47.0303L114.964 47.0351Z" fill="white" fill-opacity="0.34"/>
</svg>
