<svg width="44" height="44" viewBox="0 0 44 44" fill="none" xmlns="http://www.w3.org/2000/svg">
<circle cx="22" cy="22" r="22" fill="url(#paint0_radial_1602_12)"/>
<path d="M24.8601 20.1628L19.4871 25.6859C19.4253 25.7494 19.3814 25.8281 19.3596 25.914C19.3379 25.9998 19.3392 26.0899 19.3634 26.1752L21.4117 33.3844C21.5927 34.053 22.5013 34.1489 22.8163 33.5315L32.0695 15.4538C32.1333 15.3288 32.1611 15.1884 32.1498 15.0484C32.1384 14.9085 32.0883 14.7744 32.0052 14.6613C31.922 14.5481 31.8089 14.4604 31.6787 14.4078C31.5485 14.3553 31.4062 14.34 31.2678 14.3636L11.2538 17.8077C10.5711 17.9252 10.3919 18.8211 10.9755 19.1923L17.2473 23.2958C17.3214 23.3443 17.4071 23.3724 17.4955 23.3772C17.584 23.3821 17.6722 23.3636 17.7512 23.3236L24.6248 19.8411C24.6675 19.8191 24.7166 19.813 24.7634 19.824C24.8101 19.8349 24.8514 19.8622 24.8798 19.9009C24.9083 19.9396 24.922 19.9871 24.9185 20.035C24.9151 20.0829 24.8947 20.128 24.8609 20.1622L24.8601 20.1628Z" fill="white" fill-opacity="0.88"/>
<defs>
<radialGradient id="paint0_radial_1602_12" cx="0" cy="0" r="1" gradientUnits="userSpaceOnUse" gradientTransform="translate(2.5448 35.3278) rotate(-36.7611) scale(47.2736 1247.27)">
<stop stop-color="#124651"/>
<stop offset="1" stop-color="#419AAB"/>
</radialGradient>
</defs>
</svg>
