<svg version="1.1" xmlns="http://www.w3.org/2000/svg" xmlns:xlink="http://www.w3.org/1999/xlink" width="800px" height="800px" viewBox="0,0,256,256"><g fill="#ffffff" fill-rule="nonzero" stroke="none" stroke-width="1" stroke-linecap="butt" stroke-linejoin="miter" stroke-miterlimit="10" stroke-dasharray="" stroke-dashoffset="0" font-family="none" font-weight="none" font-size="none" text-anchor="none" style="mix-blend-mode: normal"><g transform="translate(-0.007,-0.004) scale(8,8)"><g id="icomoon-ignore" font-family="Inter, apple-system, BlinkMacSystemFont, &quot;Helvetica Neue&quot;, &quot;Segoe UI&quot;, &quot;Fira Sans&quot;, Roboto, Oxygen, Ubuntu, &quot;Droid Sans&quot;, Arial, sans-serif" font-weight="400" font-size="16" text-anchor="start"></g><path d="M6.576,6.576c-5.205,5.205 -5.205,13.643 0,18.849c5.205,5.206 13.643,5.205 18.849,0c5.206,-5.206 5.206,-13.643 0,-18.849c-5.206,-5.206 -13.643,-5.205 -18.849,0zM24.67,24.67c-4.781,4.781 -12.56,4.781 -17.341,0c-4.781,-4.781 -4.781,-12.56 0,-17.341c4.781,-4.781 12.56,-4.781 17.341,0c4.781,4.781 4.78,12.56 0,17.341z"></path><path d="M10.722,9.969l-0.754,0.754l5.278,5.278l-5.253,5.253l0.754,0.754l5.253,-5.253l5.253,5.253l0.754,-0.754l-5.253,-5.253l5.278,-5.278l-0.754,-0.754l-5.278,5.278z"></path></g></g></svg>