<svg width="341" height="339" viewBox="0 0 341 339" fill="none" xmlns="http://www.w3.org/2000/svg">
<g filter="url(#filter0_bd_1546_7)">
<path d="M84.4532 68.5981C87.2378 66.9904 90.6686 66.9904 93.4532 68.5981L161.489 107.879C164.274 109.486 165.989 112.457 165.989 115.673V194.234C165.989 197.449 164.274 200.42 161.489 202.028L93.4532 241.308C90.6686 242.916 87.2378 242.916 84.4532 241.308L16.4175 202.028C13.6329 200.42 11.9175 197.449 11.9175 194.234V115.673C11.9175 112.457 13.6329 109.486 16.4175 107.879L84.4532 68.5981Z" fill="white" fill-opacity="0.31" shape-rendering="crispEdges"/>
</g>
<g filter="url(#filter1_d_1546_7)">
<path d="M83.4831 84.8867C86.5771 83.1004 90.3891 83.1004 93.4831 84.8868L147.121 115.855C150.215 117.641 152.121 120.942 152.121 124.515V186.451C152.121 190.024 150.215 193.325 147.121 195.111L93.4831 226.079C90.3891 227.866 86.5771 227.866 83.4831 226.079L29.8449 195.111C26.7509 193.325 24.8449 190.024 24.8449 186.451V124.515C24.8449 120.942 26.7509 117.641 29.8449 115.855L83.4831 84.8867Z" fill="white"/>
<path d="M83.4831 84.8867C86.5771 83.1004 90.3891 83.1004 93.4831 84.8868L147.121 115.855C150.215 117.641 152.121 120.942 152.121 124.515V186.451C152.121 190.024 150.215 193.325 147.121 195.111L93.4831 226.079C90.3891 227.866 86.5771 227.866 83.4831 226.079L29.8449 195.111C26.7509 193.325 24.8449 190.024 24.8449 186.451V124.515C24.8449 120.942 26.7509 117.641 29.8449 115.855L83.4831 84.8867Z" fill="url(#paint0_radial_1546_7)"/>
<path d="M83.4831 84.8867C86.5771 83.1004 90.3891 83.1004 93.4831 84.8868L147.121 115.855C150.215 117.641 152.121 120.942 152.121 124.515V186.451C152.121 190.024 150.215 193.325 147.121 195.111L93.4831 226.079C90.3891 227.866 86.5771 227.866 83.4831 226.079L29.8449 195.111C26.7509 193.325 24.8449 190.024 24.8449 186.451V124.515C24.8449 120.942 26.7509 117.641 29.8449 115.855L83.4831 84.8867Z" fill="url(#paint1_radial_1546_7)"/>
<path d="M83.4831 84.8867C86.5771 83.1004 90.3891 83.1004 93.4831 84.8868L147.121 115.855C150.215 117.641 152.121 120.942 152.121 124.515V186.451C152.121 190.024 150.215 193.325 147.121 195.111L93.4831 226.079C90.3891 227.866 86.5771 227.866 83.4831 226.079L29.8449 195.111C26.7509 193.325 24.8449 190.024 24.8449 186.451V124.515C24.8449 120.942 26.7509 117.641 29.8449 115.855L83.4831 84.8867Z" fill="url(#paint2_linear_1546_7)"/>
<path d="M83.4831 84.8867C86.5771 83.1004 90.3891 83.1004 93.4831 84.8868L147.121 115.855C150.215 117.641 152.121 120.942 152.121 124.515V186.451C152.121 190.024 150.215 193.325 147.121 195.111L93.4831 226.079C90.3891 227.866 86.5771 227.866 83.4831 226.079L29.8449 195.111C26.7509 193.325 24.8449 190.024 24.8449 186.451V124.515C24.8449 120.942 26.7509 117.641 29.8449 115.855L83.4831 84.8867Z" fill="url(#paint3_radial_1546_7)"/>
</g>
<path d="M40.569 139.9H47.535V170H40.569V139.9ZM64.5684 170.516C62.189 170.516 59.8814 170.201 57.6454 169.57C55.438 168.911 53.6607 168.065 52.3134 167.033L54.6784 161.787C55.9684 162.733 57.502 163.493 59.2794 164.066C61.0567 164.639 62.834 164.926 64.6114 164.926C66.5894 164.926 68.0514 164.639 68.9974 164.066C69.9434 163.464 70.4164 162.676 70.4164 161.701C70.4164 160.984 70.1297 160.397 69.5564 159.938C69.0117 159.451 68.295 159.064 67.4064 158.777C66.5464 158.49 65.371 158.175 63.8804 157.831C61.587 157.286 59.7094 156.742 58.2474 156.197C56.7854 155.652 55.524 154.778 54.4634 153.574C53.4314 152.37 52.9154 150.765 52.9154 148.758C52.9154 147.009 53.3884 145.433 54.3344 144.028C55.2804 142.595 56.6994 141.462 58.5914 140.631C60.512 139.8 62.8484 139.384 65.6004 139.384C67.521 139.384 69.3987 139.613 71.2334 140.072C73.068 140.531 74.6734 141.19 76.0494 142.05L73.8994 147.339C71.1187 145.762 68.338 144.974 65.5574 144.974C63.608 144.974 62.1604 145.289 61.2144 145.92C60.297 146.551 59.8384 147.382 59.8384 148.414C59.8384 149.446 60.3687 150.22 61.4294 150.736C62.5187 151.223 64.167 151.711 66.3744 152.198C68.6677 152.743 70.5454 153.287 72.0074 153.832C73.4694 154.377 74.7164 155.237 75.7484 156.412C76.809 157.587 77.3394 159.178 77.3394 161.185C77.3394 162.905 76.852 164.482 75.8774 165.915C74.9314 167.32 73.498 168.438 71.5774 169.269C69.6567 170.1 67.3204 170.516 64.5684 170.516ZM96.5043 170.516C93.4369 170.516 90.6563 169.857 88.1623 168.538C85.6969 167.191 83.7476 165.342 82.3143 162.991C80.9096 160.612 80.2073 157.931 80.2073 154.95C80.2073 151.969 80.9096 149.303 82.3143 146.952C83.7476 144.573 85.6969 142.724 88.1623 141.405C90.6563 140.058 93.4513 139.384 96.5473 139.384C99.1559 139.384 101.507 139.843 103.599 140.76C105.721 141.677 107.498 142.996 108.931 144.716L104.459 148.844C102.424 146.493 99.9013 145.318 96.8913 145.318C95.0279 145.318 93.3653 145.734 91.9033 146.565C90.4413 147.368 89.2946 148.5 88.4633 149.962C87.6606 151.424 87.2593 153.087 87.2593 154.95C87.2593 156.813 87.6606 158.476 88.4633 159.938C89.2946 161.4 90.4413 162.547 91.9033 163.378C93.3653 164.181 95.0279 164.582 96.8913 164.582C99.9013 164.582 102.424 163.392 104.459 161.013L108.931 165.141C107.498 166.89 105.721 168.223 103.599 169.14C101.478 170.057 99.1129 170.516 96.5043 170.516ZM127.411 170.516C124.343 170.516 121.563 169.857 119.069 168.538C116.603 167.191 114.654 165.342 113.221 162.991C111.816 160.612 111.114 157.931 111.114 154.95C111.114 151.969 111.816 149.303 113.221 146.952C114.654 144.573 116.603 142.724 119.069 141.405C121.563 140.058 124.358 139.384 127.454 139.384C130.062 139.384 132.413 139.843 134.506 140.76C136.627 141.677 138.404 142.996 139.838 144.716L135.366 148.844C133.33 146.493 130.808 145.318 127.798 145.318C125.934 145.318 124.272 145.734 122.81 146.565C121.348 147.368 120.201 148.5 119.37 149.962C118.567 151.424 118.166 153.087 118.166 154.95C118.166 156.813 118.567 158.476 119.37 159.938C120.201 161.4 121.348 162.547 122.81 163.378C124.272 164.181 125.934 164.582 127.798 164.582C130.808 164.582 133.33 163.392 135.366 161.013L139.838 165.141C138.404 166.89 136.627 168.223 134.506 169.14C132.384 170.057 130.019 170.516 127.411 170.516Z" fill="#E1E1E1"/>
<g filter="url(#filter2_bd_1546_7)">
<path d="M194.453 8.59808C197.238 6.99038 200.669 6.99038 203.453 8.59808L271.489 47.8785C274.274 49.4862 275.989 52.4574 275.989 55.6727V134.234C275.989 137.449 274.274 140.42 271.489 142.028L203.453 181.308C200.669 182.916 197.238 182.916 194.453 181.308L126.417 142.028C123.633 140.42 121.917 137.449 121.917 134.234V55.6728C121.917 52.4574 123.633 49.4862 126.417 47.8785L194.453 8.59808Z" fill="white" fill-opacity="0.31" shape-rendering="crispEdges"/>
</g>
<g filter="url(#filter3_d_1546_7)">
<path d="M193.483 23.8867C196.577 22.1004 200.389 22.1004 203.483 23.8868L257.121 54.8548C260.215 56.6411 262.121 59.9424 262.121 63.515V125.451C262.121 129.024 260.215 132.325 257.121 134.111L203.483 165.079C200.389 166.866 196.577 166.866 193.483 165.079L139.845 134.111C136.751 132.325 134.845 129.024 134.845 125.451V63.515C134.845 59.9424 136.751 56.6411 139.845 54.8548L193.483 23.8867Z" fill="url(#paint4_radial_1546_7)"/>
<path d="M193.483 23.8867C196.577 22.1004 200.389 22.1004 203.483 23.8868L257.121 54.8548C260.215 56.6411 262.121 59.9424 262.121 63.515V125.451C262.121 129.024 260.215 132.325 257.121 134.111L203.483 165.079C200.389 166.866 196.577 166.866 193.483 165.079L139.845 134.111C136.751 132.325 134.845 129.024 134.845 125.451V63.515C134.845 59.9424 136.751 56.6411 139.845 54.8548L193.483 23.8867Z" fill="url(#paint5_linear_1546_7)"/>
<path d="M193.483 23.8867C196.577 22.1004 200.389 22.1004 203.483 23.8868L257.121 54.8548C260.215 56.6411 262.121 59.9424 262.121 63.515V125.451C262.121 129.024 260.215 132.325 257.121 134.111L203.483 165.079C200.389 166.866 196.577 166.866 193.483 165.079L139.845 134.111C136.751 132.325 134.845 129.024 134.845 125.451V63.515C134.845 59.9424 136.751 56.6411 139.845 54.8548L193.483 23.8867Z" fill="url(#paint6_radial_1546_7)"/>
</g>
<path d="M152.535 85.49V93.445H166.467V99.035H152.535V110H145.569V79.9H168.316V85.49H152.535ZM182.838 110.516C180.459 110.516 178.151 110.201 175.915 109.57C173.708 108.911 171.93 108.065 170.583 107.033L172.948 101.787C174.238 102.733 175.772 103.493 177.549 104.066C179.326 104.639 181.104 104.926 182.881 104.926C184.859 104.926 186.321 104.639 187.267 104.066C188.213 103.464 188.686 102.676 188.686 101.701C188.686 100.984 188.399 100.397 187.826 99.938C187.281 99.4507 186.565 99.0637 185.676 98.777C184.816 98.4903 183.641 98.175 182.15 97.831C179.857 97.2863 177.979 96.7417 176.517 96.197C175.055 95.6523 173.794 94.778 172.733 93.574C171.701 92.37 171.185 90.7647 171.185 88.758C171.185 87.0093 171.658 85.4327 172.604 84.028C173.55 82.5947 174.969 81.4623 176.861 80.631C178.782 79.7997 181.118 79.384 183.87 79.384C185.791 79.384 187.668 79.6133 189.503 80.072C191.338 80.5307 192.943 81.19 194.319 82.05L192.169 87.339C189.388 85.7623 186.608 84.974 183.827 84.974C181.878 84.974 180.43 85.2893 179.484 85.92C178.567 86.5507 178.108 87.382 178.108 88.414C178.108 89.446 178.638 90.22 179.699 90.736C180.788 91.2233 182.437 91.7107 184.644 92.198C186.937 92.7427 188.815 93.2873 190.277 93.832C191.739 94.3767 192.986 95.2367 194.018 96.412C195.079 97.5873 195.609 99.1783 195.609 101.185C195.609 102.905 195.122 104.482 194.147 105.915C193.201 107.32 191.768 108.438 189.847 109.269C187.926 110.1 185.59 110.516 182.838 110.516ZM210.259 110.516C207.879 110.516 205.572 110.201 203.336 109.57C201.128 108.911 199.351 108.065 198.004 107.033L200.369 101.787C201.659 102.733 203.192 103.493 204.97 104.066C206.747 104.639 208.524 104.926 210.302 104.926C212.28 104.926 213.742 104.639 214.688 104.066C215.634 103.464 216.107 102.676 216.107 101.701C216.107 100.984 215.82 100.397 215.247 99.938C214.702 99.4507 213.985 99.0637 213.097 98.777C212.237 98.4903 211.061 98.175 209.571 97.831C207.277 97.2863 205.4 96.7417 203.938 96.197C202.476 95.6523 201.214 94.778 200.154 93.574C199.122 92.37 198.606 90.7647 198.606 88.758C198.606 87.0093 199.079 85.4327 200.025 84.028C200.971 82.5947 202.39 81.4623 204.282 80.631C206.202 79.7997 208.539 79.384 211.291 79.384C213.211 79.384 215.089 79.6133 216.924 80.072C218.758 80.5307 220.364 81.19 221.74 82.05L219.59 87.339C216.809 85.7623 214.028 84.974 211.248 84.974C209.298 84.974 207.851 85.2893 206.905 85.92C205.987 86.5507 205.529 87.382 205.529 88.414C205.529 89.446 206.059 90.22 207.12 90.736C208.209 91.2233 209.857 91.7107 212.065 92.198C214.358 92.7427 216.236 93.2873 217.698 93.832C219.16 94.3767 220.407 95.2367 221.439 96.412C222.499 97.5873 223.03 99.1783 223.03 101.185C223.03 102.905 222.542 104.482 221.568 105.915C220.622 107.32 219.188 108.438 217.268 109.269C215.347 110.1 213.011 110.516 210.259 110.516ZM242.195 110.516C239.127 110.516 236.347 109.857 233.853 108.538C231.387 107.191 229.438 105.342 228.005 102.991C226.6 100.612 225.898 97.9313 225.898 94.95C225.898 91.9687 226.6 89.3027 228.005 86.952C229.438 84.5727 231.387 82.7237 233.853 81.405C236.347 80.0577 239.142 79.384 242.238 79.384C244.846 79.384 247.197 79.8427 249.29 80.76C251.411 81.6773 253.188 82.996 254.622 84.716L250.15 88.844C248.114 86.4933 245.592 85.318 242.582 85.318C240.718 85.318 239.056 85.7337 237.594 86.565C236.132 87.3677 234.985 88.5 234.154 89.962C233.351 91.424 232.95 93.0867 232.95 94.95C232.95 96.8133 233.351 98.476 234.154 99.938C234.985 101.4 236.132 102.547 237.594 103.378C239.056 104.181 240.718 104.582 242.582 104.582C245.592 104.582 248.114 103.392 250.15 101.013L254.622 105.141C253.188 106.89 251.411 108.223 249.29 109.14C247.168 110.057 244.803 110.516 242.195 110.516Z" fill="#E1E1E1"/>
<g filter="url(#filter4_bd_1546_7)">
<path d="M247.453 108.598C250.238 106.99 253.669 106.99 256.453 108.598L324.489 147.879C327.274 149.486 328.989 152.457 328.989 155.673V234.234C328.989 237.449 327.274 240.42 324.489 242.028L256.453 281.308C253.669 282.916 250.238 282.916 247.453 281.308L179.417 242.028C176.633 240.42 174.917 237.449 174.917 234.234V155.673C174.917 152.457 176.633 149.486 179.417 147.879L247.453 108.598Z" fill="white" fill-opacity="0.31" shape-rendering="crispEdges"/>
</g>
<g filter="url(#filter5_d_1546_7)">
<path d="M246.483 123.887C249.577 122.1 253.389 122.1 256.483 123.887L310.121 154.855C313.215 156.641 315.121 159.942 315.121 163.515V225.451C315.121 229.024 313.215 232.325 310.121 234.111L256.483 265.079C253.389 266.866 249.577 266.866 246.483 265.079L192.845 234.111C189.751 232.325 187.845 229.024 187.845 225.451V163.515C187.845 159.942 189.751 156.641 192.845 154.855L246.483 123.887Z" fill="white"/>
<path d="M246.483 123.887C249.577 122.1 253.389 122.1 256.483 123.887L310.121 154.855C313.215 156.641 315.121 159.942 315.121 163.515V225.451C315.121 229.024 313.215 232.325 310.121 234.111L256.483 265.079C253.389 266.866 249.577 266.866 246.483 265.079L192.845 234.111C189.751 232.325 187.845 229.024 187.845 225.451V163.515C187.845 159.942 189.751 156.641 192.845 154.855L246.483 123.887Z" fill="url(#paint7_radial_1546_7)"/>
<path d="M246.483 123.887C249.577 122.1 253.389 122.1 256.483 123.887L310.121 154.855C313.215 156.641 315.121 159.942 315.121 163.515V225.451C315.121 229.024 313.215 232.325 310.121 234.111L256.483 265.079C253.389 266.866 249.577 266.866 246.483 265.079L192.845 234.111C189.751 232.325 187.845 229.024 187.845 225.451V163.515C187.845 159.942 189.751 156.641 192.845 154.855L246.483 123.887Z" fill="url(#paint8_radial_1546_7)"/>
<path d="M246.483 123.887C249.577 122.1 253.389 122.1 256.483 123.887L310.121 154.855C313.215 156.641 315.121 159.942 315.121 163.515V225.451C315.121 229.024 313.215 232.325 310.121 234.111L256.483 265.079C253.389 266.866 249.577 266.866 246.483 265.079L192.845 234.111C189.751 232.325 187.845 229.024 187.845 225.451V163.515C187.845 159.942 189.751 156.641 192.845 154.855L246.483 123.887Z" fill="url(#paint9_radial_1546_7)"/>
</g>
<path d="M222.908 194.477H229.272V206.689C227.638 207.922 225.746 208.868 223.596 209.527C221.446 210.186 219.282 210.516 217.103 210.516C213.978 210.516 211.169 209.857 208.675 208.538C206.181 207.191 204.217 205.342 202.784 202.991C201.379 200.612 200.677 197.931 200.677 194.95C200.677 191.969 201.379 189.303 202.784 186.952C204.217 184.573 206.195 182.724 208.718 181.405C211.241 180.058 214.079 179.384 217.232 179.384C219.869 179.384 222.263 179.828 224.413 180.717C226.563 181.606 228.369 182.896 229.831 184.587L225.359 188.715C223.209 186.45 220.615 185.318 217.576 185.318C215.655 185.318 213.95 185.719 212.459 186.522C210.968 187.325 209.807 188.457 208.976 189.919C208.145 191.381 207.729 193.058 207.729 194.95C207.729 196.813 208.145 198.476 208.976 199.938C209.807 201.4 210.954 202.547 212.416 203.378C213.907 204.181 215.598 204.582 217.49 204.582C219.497 204.582 221.303 204.152 222.908 203.292V194.477ZM263.134 210L263.091 191.94L254.233 206.818H251.094L242.279 192.327V210H235.743V179.9H241.505L252.771 198.605L263.865 179.9H269.584L269.67 210H263.134ZM289.84 179.9C292.506 179.9 294.814 180.344 296.763 181.233C298.741 182.122 300.261 183.383 301.321 185.017C302.382 186.651 302.912 188.586 302.912 190.822C302.912 193.029 302.382 194.964 301.321 196.627C300.261 198.261 298.741 199.522 296.763 200.411C294.814 201.271 292.506 201.701 289.84 201.701H283.777V210H276.811V179.9H289.84ZM289.453 196.025C291.546 196.025 293.137 195.581 294.226 194.692C295.316 193.775 295.86 192.485 295.86 190.822C295.86 189.131 295.316 187.841 294.226 186.952C293.137 186.035 291.546 185.576 289.453 185.576H283.777V196.025H289.453Z" fill="#E1E1E1"/>
<g filter="url(#filter6_bd_1546_7)">
<path d="M125.453 157.598C128.238 155.99 131.669 155.99 134.453 157.598L202.489 196.879C205.274 198.486 206.989 201.457 206.989 204.673V283.234C206.989 286.449 205.274 289.42 202.489 291.028L134.453 330.308C131.669 331.916 128.238 331.916 125.453 330.308L57.4175 291.028C54.6329 289.42 52.9175 286.449 52.9175 283.234V204.673C52.9175 201.457 54.6329 198.486 57.4175 196.879L125.453 157.598Z" fill="white" fill-opacity="0.31" shape-rendering="crispEdges"/>
</g>
<g filter="url(#filter7_d_1546_7)">
<path d="M124.483 172.887C127.577 171.1 131.389 171.1 134.483 172.887L188.121 203.855C191.215 205.641 193.121 208.942 193.121 212.515V274.451C193.121 278.024 191.215 281.325 188.121 283.111L134.483 314.079C131.389 315.866 127.577 315.866 124.483 314.079L70.8449 283.111C67.7509 281.325 65.8449 278.024 65.8449 274.451V212.515C65.8449 208.942 67.7509 205.641 70.8449 203.855L124.483 172.887Z" fill="white"/>
<path d="M124.483 172.887C127.577 171.1 131.389 171.1 134.483 172.887L188.121 203.855C191.215 205.641 193.121 208.942 193.121 212.515V274.451C193.121 278.024 191.215 281.325 188.121 283.111L134.483 314.079C131.389 315.866 127.577 315.866 124.483 314.079L70.8449 283.111C67.7509 281.325 65.8449 278.024 65.8449 274.451V212.515C65.8449 208.942 67.7509 205.641 70.8449 203.855L124.483 172.887Z" fill="url(#paint10_radial_1546_7)"/>
<path d="M124.483 172.887C127.577 171.1 131.389 171.1 134.483 172.887L188.121 203.855C191.215 205.641 193.121 208.942 193.121 212.515V274.451C193.121 278.024 191.215 281.325 188.121 283.111L134.483 314.079C131.389 315.866 127.577 315.866 124.483 314.079L70.8449 283.111C67.7509 281.325 65.8449 278.024 65.8449 274.451V212.515C65.8449 208.942 67.7509 205.641 70.8449 203.855L124.483 172.887Z" fill="url(#paint11_radial_1546_7)"/>
<path d="M124.483 172.887C127.577 171.1 131.389 171.1 134.483 172.887L188.121 203.855C191.215 205.641 193.121 208.942 193.121 212.515V274.451C193.121 278.024 191.215 281.325 188.121 283.111L134.483 314.079C131.389 315.866 127.577 315.866 124.483 314.079L70.8449 283.111C67.7509 281.325 65.8449 278.024 65.8449 274.451V212.515C65.8449 208.942 67.7509 205.641 70.8449 203.855L124.483 172.887Z" fill="url(#paint12_linear_1546_7)"/>
<path d="M124.483 172.887C127.577 171.1 131.389 171.1 134.483 172.887L188.121 203.855C191.215 205.641 193.121 208.942 193.121 212.515V274.451C193.121 278.024 191.215 281.325 188.121 283.111L134.483 314.079C131.389 315.866 127.577 315.866 124.483 314.079L70.8449 283.111C67.7509 281.325 65.8449 278.024 65.8449 274.451V212.515C65.8449 208.942 67.7509 205.641 70.8449 203.855L124.483 172.887Z" fill="url(#paint13_radial_1546_7)"/>
</g>
<path d="M94.569 228.9H101.535V259H94.569V228.9ZM118.568 259.516C116.189 259.516 113.881 259.201 111.645 258.57C109.438 257.911 107.661 257.065 106.313 256.033L108.678 250.787C109.968 251.733 111.502 252.493 113.279 253.066C115.057 253.639 116.834 253.926 118.611 253.926C120.589 253.926 122.051 253.639 122.997 253.066C123.943 252.464 124.416 251.676 124.416 250.701C124.416 249.984 124.13 249.397 123.556 248.938C123.012 248.451 122.295 248.064 121.406 247.777C120.546 247.49 119.371 247.175 117.88 246.831C115.587 246.286 113.709 245.742 112.247 245.197C110.785 244.652 109.524 243.778 108.463 242.574C107.431 241.37 106.915 239.765 106.915 237.758C106.915 236.009 107.388 234.433 108.334 233.028C109.28 231.595 110.699 230.462 112.591 229.631C114.512 228.8 116.848 228.384 119.6 228.384C121.521 228.384 123.399 228.613 125.233 229.072C127.068 229.531 128.673 230.19 130.049 231.05L127.899 236.339C125.119 234.762 122.338 233.974 119.557 233.974C117.608 233.974 116.16 234.289 115.214 234.92C114.297 235.551 113.838 236.382 113.838 237.414C113.838 238.446 114.369 239.22 115.429 239.736C116.519 240.223 118.167 240.711 120.374 241.198C122.668 241.743 124.545 242.287 126.007 242.832C127.469 243.377 128.716 244.237 129.748 245.412C130.809 246.587 131.339 248.178 131.339 250.185C131.339 251.905 130.852 253.482 129.877 254.915C128.931 256.32 127.498 257.438 125.577 258.269C123.657 259.1 121.32 259.516 118.568 259.516ZM150.676 259.516C147.552 259.516 144.728 258.842 142.205 257.495C139.711 256.148 137.748 254.299 136.314 251.948C134.91 249.569 134.207 246.903 134.207 243.95C134.207 240.997 134.91 238.346 136.314 235.995C137.748 233.616 139.711 231.752 142.205 230.405C144.728 229.058 147.552 228.384 150.676 228.384C153.801 228.384 156.61 229.058 159.104 230.405C161.598 231.752 163.562 233.616 164.995 235.995C166.429 238.346 167.145 240.997 167.145 243.95C167.145 246.903 166.429 249.569 164.995 251.948C163.562 254.299 161.598 256.148 159.104 257.495C156.61 258.842 153.801 259.516 150.676 259.516ZM150.676 253.582C152.454 253.582 154.059 253.181 155.492 252.378C156.926 251.547 158.044 250.4 158.846 248.938C159.678 247.476 160.093 245.813 160.093 243.95C160.093 242.087 159.678 240.424 158.846 238.962C158.044 237.5 156.926 236.368 155.492 235.565C154.059 234.734 152.454 234.318 150.676 234.318C148.899 234.318 147.294 234.734 145.86 235.565C144.427 236.368 143.295 237.5 142.463 238.962C141.661 240.424 141.259 242.087 141.259 243.95C141.259 245.813 141.661 247.476 142.463 248.938C143.295 250.4 144.427 251.547 145.86 252.378C147.294 253.181 148.899 253.582 150.676 253.582Z" fill="#E1E1E1"/>
<defs>
<filter id="filter0_bd_1546_7" x="0.917969" y="56.3926" width="176.07" height="197.121" filterUnits="userSpaceOnUse" color-interpolation-filters="sRGB">
<feFlood flood-opacity="0" result="BackgroundImageFix"/>
<feGaussianBlur in="BackgroundImageFix" stdDeviation="5.5"/>
<feComposite in2="SourceAlpha" operator="in" result="effect1_backgroundBlur_1546_7"/>
<feColorMatrix in="SourceAlpha" type="matrix" values="0 0 0 0 0 0 0 0 0 0 0 0 0 0 0 0 0 0 127 0" result="hardAlpha"/>
<feOffset/>
<feGaussianBlur stdDeviation="3.5"/>
<feComposite in2="hardAlpha" operator="out"/>
<feColorMatrix type="matrix" values="0 0 0 0 0 0 0 0 0 0 0 0 0 0 0 0 0 0 0.25 0"/>
<feBlend mode="normal" in2="effect1_backgroundBlur_1546_7" result="effect2_dropShadow_1546_7"/>
<feBlend mode="normal" in="SourceGraphic" in2="effect2_dropShadow_1546_7" result="shape"/>
</filter>
<filter id="filter1_d_1546_7" x="19.8457" y="78.5469" width="137.275" height="153.872" filterUnits="userSpaceOnUse" color-interpolation-filters="sRGB">
<feFlood flood-opacity="0" result="BackgroundImageFix"/>
<feColorMatrix in="SourceAlpha" type="matrix" values="0 0 0 0 0 0 0 0 0 0 0 0 0 0 0 0 0 0 127 0" result="hardAlpha"/>
<feOffset/>
<feGaussianBlur stdDeviation="2.5"/>
<feComposite in2="hardAlpha" operator="out"/>
<feColorMatrix type="matrix" values="0 0 0 0 0 0 0 0 0 0 0 0 0 0 0 0 0 0 0.25 0"/>
<feBlend mode="normal" in2="BackgroundImageFix" result="effect1_dropShadow_1546_7"/>
<feBlend mode="normal" in="SourceGraphic" in2="effect1_dropShadow_1546_7" result="shape"/>
</filter>
<filter id="filter2_bd_1546_7" x="110.918" y="-3.60742" width="176.07" height="197.121" filterUnits="userSpaceOnUse" color-interpolation-filters="sRGB">
<feFlood flood-opacity="0" result="BackgroundImageFix"/>
<feGaussianBlur in="BackgroundImageFix" stdDeviation="5.5"/>
<feComposite in2="SourceAlpha" operator="in" result="effect1_backgroundBlur_1546_7"/>
<feColorMatrix in="SourceAlpha" type="matrix" values="0 0 0 0 0 0 0 0 0 0 0 0 0 0 0 0 0 0 127 0" result="hardAlpha"/>
<feOffset/>
<feGaussianBlur stdDeviation="3.5"/>
<feComposite in2="hardAlpha" operator="out"/>
<feColorMatrix type="matrix" values="0 0 0 0 0 0 0 0 0 0 0 0 0 0 0 0 0 0 0.25 0"/>
<feBlend mode="normal" in2="effect1_backgroundBlur_1546_7" result="effect2_dropShadow_1546_7"/>
<feBlend mode="normal" in="SourceGraphic" in2="effect2_dropShadow_1546_7" result="shape"/>
</filter>
<filter id="filter3_d_1546_7" x="129.846" y="17.5469" width="137.275" height="153.872" filterUnits="userSpaceOnUse" color-interpolation-filters="sRGB">
<feFlood flood-opacity="0" result="BackgroundImageFix"/>
<feColorMatrix in="SourceAlpha" type="matrix" values="0 0 0 0 0 0 0 0 0 0 0 0 0 0 0 0 0 0 127 0" result="hardAlpha"/>
<feOffset/>
<feGaussianBlur stdDeviation="2.5"/>
<feComposite in2="hardAlpha" operator="out"/>
<feColorMatrix type="matrix" values="0 0 0 0 0 0 0 0 0 0 0 0 0 0 0 0 0 0 0.25 0"/>
<feBlend mode="normal" in2="BackgroundImageFix" result="effect1_dropShadow_1546_7"/>
<feBlend mode="normal" in="SourceGraphic" in2="effect1_dropShadow_1546_7" result="shape"/>
</filter>
<filter id="filter4_bd_1546_7" x="163.918" y="96.3926" width="176.07" height="197.121" filterUnits="userSpaceOnUse" color-interpolation-filters="sRGB">
<feFlood flood-opacity="0" result="BackgroundImageFix"/>
<feGaussianBlur in="BackgroundImageFix" stdDeviation="5.5"/>
<feComposite in2="SourceAlpha" operator="in" result="effect1_backgroundBlur_1546_7"/>
<feColorMatrix in="SourceAlpha" type="matrix" values="0 0 0 0 0 0 0 0 0 0 0 0 0 0 0 0 0 0 127 0" result="hardAlpha"/>
<feOffset/>
<feGaussianBlur stdDeviation="3.5"/>
<feComposite in2="hardAlpha" operator="out"/>
<feColorMatrix type="matrix" values="0 0 0 0 0 0 0 0 0 0 0 0 0 0 0 0 0 0 0.25 0"/>
<feBlend mode="normal" in2="effect1_backgroundBlur_1546_7" result="effect2_dropShadow_1546_7"/>
<feBlend mode="normal" in="SourceGraphic" in2="effect2_dropShadow_1546_7" result="shape"/>
</filter>
<filter id="filter5_d_1546_7" x="182.846" y="117.547" width="137.275" height="153.872" filterUnits="userSpaceOnUse" color-interpolation-filters="sRGB">
<feFlood flood-opacity="0" result="BackgroundImageFix"/>
<feColorMatrix in="SourceAlpha" type="matrix" values="0 0 0 0 0 0 0 0 0 0 0 0 0 0 0 0 0 0 127 0" result="hardAlpha"/>
<feOffset/>
<feGaussianBlur stdDeviation="2.5"/>
<feComposite in2="hardAlpha" operator="out"/>
<feColorMatrix type="matrix" values="0 0 0 0 0 0 0 0 0 0 0 0 0 0 0 0 0 0 0.25 0"/>
<feBlend mode="normal" in2="BackgroundImageFix" result="effect1_dropShadow_1546_7"/>
<feBlend mode="normal" in="SourceGraphic" in2="effect1_dropShadow_1546_7" result="shape"/>
</filter>
<filter id="filter6_bd_1546_7" x="41.918" y="145.393" width="176.07" height="197.121" filterUnits="userSpaceOnUse" color-interpolation-filters="sRGB">
<feFlood flood-opacity="0" result="BackgroundImageFix"/>
<feGaussianBlur in="BackgroundImageFix" stdDeviation="5.5"/>
<feComposite in2="SourceAlpha" operator="in" result="effect1_backgroundBlur_1546_7"/>
<feColorMatrix in="SourceAlpha" type="matrix" values="0 0 0 0 0 0 0 0 0 0 0 0 0 0 0 0 0 0 127 0" result="hardAlpha"/>
<feOffset/>
<feGaussianBlur stdDeviation="3.5"/>
<feComposite in2="hardAlpha" operator="out"/>
<feColorMatrix type="matrix" values="0 0 0 0 0 0 0 0 0 0 0 0 0 0 0 0 0 0 0.25 0"/>
<feBlend mode="normal" in2="effect1_backgroundBlur_1546_7" result="effect2_dropShadow_1546_7"/>
<feBlend mode="normal" in="SourceGraphic" in2="effect2_dropShadow_1546_7" result="shape"/>
</filter>
<filter id="filter7_d_1546_7" x="60.8457" y="166.547" width="137.275" height="153.872" filterUnits="userSpaceOnUse" color-interpolation-filters="sRGB">
<feFlood flood-opacity="0" result="BackgroundImageFix"/>
<feColorMatrix in="SourceAlpha" type="matrix" values="0 0 0 0 0 0 0 0 0 0 0 0 0 0 0 0 0 0 127 0" result="hardAlpha"/>
<feOffset/>
<feGaussianBlur stdDeviation="2.5"/>
<feComposite in2="hardAlpha" operator="out"/>
<feColorMatrix type="matrix" values="0 0 0 0 0 0 0 0 0 0 0 0 0 0 0 0 0 0 0.25 0"/>
<feBlend mode="normal" in2="BackgroundImageFix" result="effect1_dropShadow_1546_7"/>
<feBlend mode="normal" in="SourceGraphic" in2="effect1_dropShadow_1546_7" result="shape"/>
</filter>
<radialGradient id="paint0_radial_1546_7" cx="0" cy="0" r="1" gradientUnits="userSpaceOnUse" gradientTransform="translate(37.1504 39.8088) rotate(96.6789) scale(190.45 191.708)">
<stop stop-color="#A8FFE9"/>
<stop offset="0.420472" stop-color="#E2EDEA"/>
<stop offset="1" stop-color="#E7ECEB"/>
</radialGradient>
<radialGradient id="paint1_radial_1546_7" cx="0" cy="0" r="1" gradientUnits="userSpaceOnUse" gradientTransform="translate(123.5 42.5) rotate(119.168) scale(196.977)">
<stop stop-color="#398B9C"/>
<stop offset="0.508047" stop-color="#C2DBE0"/>
<stop offset="0.828125" stop-color="#C3E1E8"/>
</radialGradient>
<linearGradient id="paint2_linear_1546_7" x1="15" y1="175.754" x2="162.043" y2="175.091" gradientUnits="userSpaceOnUse">
<stop offset="0.625341" stop-color="#124651"/>
<stop offset="1" stop-color="#419AAB"/>
</linearGradient>
<radialGradient id="paint3_radial_1546_7" cx="0" cy="0" r="1" gradientUnits="userSpaceOnUse" gradientTransform="translate(23.5 200) rotate(-36.7611) scale(157.9 4166.06)">
<stop stop-color="#124651"/>
<stop offset="1" stop-color="#419AAB"/>
</radialGradient>
<radialGradient id="paint4_radial_1546_7" cx="0" cy="0" r="1" gradientUnits="userSpaceOnUse" gradientTransform="translate(125 162) rotate(-43.2337) scale(160.59)">
<stop stop-color="#398B9C"/>
<stop offset="0.508047" stop-color="#AECED5"/>
<stop offset="0.828125" stop-color="#C3E1E8"/>
</radialGradient>
<linearGradient id="paint5_linear_1546_7" x1="125" y1="114.754" x2="272.043" y2="114.091" gradientUnits="userSpaceOnUse">
<stop offset="0.625341" stop-color="#124651"/>
<stop offset="1" stop-color="#419AAB"/>
</linearGradient>
<radialGradient id="paint6_radial_1546_7" cx="0" cy="0" r="1" gradientUnits="userSpaceOnUse" gradientTransform="translate(133.5 139) rotate(-36.7611) scale(157.9 4166.06)">
<stop stop-color="#124651"/>
<stop offset="1" stop-color="#419AAB"/>
</radialGradient>
<radialGradient id="paint7_radial_1546_7" cx="0" cy="0" r="1" gradientUnits="userSpaceOnUse" gradientTransform="translate(145.302 121) rotate(17.0205) scale(252.241 388.715)">
<stop offset="0.0258909" stop-color="#43F5C9"/>
<stop offset="0.397005" stop-color="#FCFCFC"/>
<stop offset="0.952333" stop-color="#E2EDEA"/>
</radialGradient>
<radialGradient id="paint8_radial_1546_7" cx="0" cy="0" r="1" gradientUnits="userSpaceOnUse" gradientTransform="translate(332 276) rotate(-134.249) scale(161.941)">
<stop stop-color="#398B9C"/>
<stop offset="0.508047" stop-color="#AECED5"/>
<stop offset="0.828125" stop-color="#C3E1E8"/>
</radialGradient>
<radialGradient id="paint9_radial_1546_7" cx="0" cy="0" r="1" gradientUnits="userSpaceOnUse" gradientTransform="translate(186.5 239) rotate(-36.7611) scale(157.9 4166.06)">
<stop stop-color="#124651"/>
<stop offset="1" stop-color="#419AAB"/>
</radialGradient>
<radialGradient id="paint10_radial_1546_7" cx="0" cy="0" r="1" gradientUnits="userSpaceOnUse" gradientTransform="translate(56 316.966) rotate(-45) scale(207.842 320.293)">
<stop stop-color="#A3FEE7"/>
<stop offset="0.420472" stop-color="#E2EDEA"/>
<stop offset="1" stop-color="#EEFFFB"/>
</radialGradient>
<radialGradient id="paint11_radial_1546_7" cx="0" cy="0" r="1" gradientUnits="userSpaceOnUse" gradientTransform="translate(3.99999 209.5) rotate(24.529) scale(195.108)">
<stop stop-color="#398B9C"/>
<stop offset="0.508047" stop-color="#AECED5"/>
<stop offset="0.975966" stop-color="#E5F5F9"/>
</radialGradient>
<linearGradient id="paint12_linear_1546_7" x1="56" y1="263.754" x2="203.043" y2="263.091" gradientUnits="userSpaceOnUse">
<stop offset="0.625341" stop-color="#124651"/>
<stop offset="1" stop-color="#419AAB"/>
</linearGradient>
<radialGradient id="paint13_radial_1546_7" cx="0" cy="0" r="1" gradientUnits="userSpaceOnUse" gradientTransform="translate(64.5 288) rotate(-36.7611) scale(157.9 4166.06)">
<stop stop-color="#124651"/>
<stop offset="1" stop-color="#419AAB"/>
</radialGradient>
</defs>
</svg>
