<svg width="86" height="79" viewBox="0 0 86 79" fill="none" xmlns="http://www.w3.org/2000/svg">
<g clip-path="url(#clip0_403_1309)">
<path d="M23.2051 14.527L23.3702 15.9172C23.4388 16.1547 23.5972 16.3574 23.8128 16.484C24.0285 16.6106 24.2853 16.6515 24.5306 16.5984H24.5919L24.2523 13.7671C24.2523 13.679 24.2523 13.5956 24.2523 13.5122C24.2266 13.0067 24.3059 12.5013 24.4851 12.0268C24.6644 11.5523 24.9399 11.1185 25.2951 10.7518C25.6502 10.3851 26.0775 10.0931 26.551 9.89361C27.0246 9.6941 27.5344 9.59123 28.0497 9.59123C28.5649 9.59123 29.0748 9.6941 29.5483 9.89361C30.0218 10.0931 30.4492 10.3851 30.8043 10.7518C31.1594 11.1185 31.435 11.5523 31.6143 12.0268C31.7935 12.5013 31.8727 13.0067 31.8471 13.5122C31.8471 13.6003 31.8471 13.6837 31.8471 13.7717L31.5357 16.3621L30.4413 17.845C30.3464 17.8042 30.2405 17.7953 30.1398 17.8196C30.0392 17.8439 29.9496 17.9 29.8847 17.9794L28.9412 19.1101C28.8593 19.2065 28.8197 19.331 28.8312 19.4562C28.8427 19.5813 28.9044 19.6968 29.0026 19.7773C29.1008 19.8578 29.2275 19.8967 29.3549 19.8854C29.4823 19.8741 29.5999 19.8136 29.6818 19.7171L30.6253 18.5864C30.6855 18.5168 30.7235 18.4313 30.7344 18.3406C30.7453 18.25 30.7287 18.1581 30.6866 18.0767L31.7716 16.617C31.9899 16.6304 32.2062 16.5689 32.3835 16.4429C32.5608 16.317 32.688 16.1344 32.7433 15.9265L32.9037 14.5363C32.9073 14.3348 32.8397 14.1384 32.7124 13.9804C32.5851 13.8224 32.406 13.7126 32.2056 13.6698C32.2056 13.6188 32.2056 13.5678 32.2056 13.5122C32.2324 12.9597 32.1447 12.4076 31.948 11.8894C31.7512 11.3711 31.4494 10.8975 31.0609 10.4972C30.6723 10.0969 30.2051 9.77821 29.6875 9.56047C29.1699 9.34274 28.6127 9.23047 28.0497 9.23047C27.4866 9.23047 26.9294 9.34274 26.4118 9.56047C25.8942 9.77821 25.427 10.0969 25.0385 10.4972C24.6499 10.8975 24.3481 11.3711 24.1514 11.8894C23.9546 12.4076 23.867 12.9597 23.8938 13.5122C23.8938 13.5678 23.8938 13.6188 23.8938 13.6698C23.6979 13.7164 23.5236 13.8262 23.3988 13.9816C23.2739 14.137 23.2057 14.3291 23.2051 14.527Z" fill="#E1E1E1"/>
<path d="M29.7612 17.8728C29.8183 17.8031 29.8899 17.7463 29.9713 17.7063C30.0527 17.6663 30.142 17.6441 30.233 17.6411C30.269 17.6366 30.3054 17.6366 30.3415 17.6411C30.6178 17.2895 30.8287 16.8926 30.9641 16.4687C31.3462 15.2963 31.3274 12.7106 31.0726 12.0108C31.0404 11.879 30.9689 11.7597 30.8672 11.6681C30.7655 11.5764 30.6383 11.5167 30.5019 11.4965C30.2826 11.1873 29.9944 10.9315 29.6592 10.7484C29.3241 10.5653 28.9508 10.4598 28.5678 10.4399C26.1101 10.0553 25.6808 11.4316 25.6808 11.4316C25.6808 11.4316 25.1761 11.3204 24.9308 12.034C24.5727 13.5178 24.638 15.0699 25.1195 16.5197C25.544 17.7106 26.695 18.7811 28.0442 18.7811C28.4243 18.7823 28.8004 18.705 29.148 18.554L29.7612 17.8728Z" fill="#E1E1E1"/>
<path d="M21.228 35.2463H23.313L24.5867 48.5272H31.7191L32.9928 35.2463H35.0778L37.3515 28.3324H32.2805L31.8512 26.4139C31.9112 26.3638 31.9555 26.2981 31.9789 26.2242C32.0023 26.1504 32.0038 26.0715 31.9833 25.9968L31.6531 24.792C31.6375 24.7406 31.6116 24.6927 31.5769 24.6512C31.5422 24.6097 31.4995 24.5755 31.4512 24.5504C31.4028 24.5254 31.3499 24.5101 31.2955 24.5054C31.241 24.5008 31.1862 24.5068 31.1342 24.5232C31.0306 24.5543 30.9437 24.6243 30.8924 24.7181C30.8412 24.8118 30.8297 24.9217 30.8606 25.0237L31.1908 26.2285C31.2119 26.3051 31.2553 26.3739 31.3156 26.4265C31.376 26.4792 31.4506 26.5135 31.5304 26.5251L31.8984 28.337H24.4168L24.7801 26.5251C24.8597 26.5129 24.934 26.4785 24.9943 26.4259C25.0545 26.3733 25.098 26.3048 25.1197 26.2285L25.4735 25.0237C25.4878 24.9726 25.4917 24.9192 25.485 24.8666C25.4783 24.814 25.461 24.7632 25.4343 24.7172C25.4076 24.6711 25.3719 24.6307 25.3292 24.5982C25.2866 24.5657 25.2378 24.5418 25.1857 24.5279C25.1497 24.5234 25.1133 24.5234 25.0772 24.5279H25.0489H24.9923C24.9611 24.5322 24.9308 24.5416 24.9027 24.5557L24.8555 24.5788C24.8282 24.598 24.803 24.6197 24.7801 24.6437L24.7518 24.6762C24.719 24.7157 24.6949 24.7614 24.681 24.8105L24.3508 26.0154C24.3291 26.09 24.33 26.1692 24.3535 26.2433C24.377 26.3174 24.4219 26.3831 24.4829 26.4324L24.3131 27.1831L24.0583 28.3324H18.959L21.228 35.2463Z" fill="#E1E1E1"/>
<path d="M33.7981 49.2451H22.5098V53.2072H33.7981V49.2451Z" fill="#E1E1E1"/>
<path d="M20.3652 27.2011L24.0588 27.1779L24.2098 26.4921C24.1514 26.4156 24.1124 26.3265 24.0959 26.2322C24.0795 26.1379 24.0862 26.0412 24.1154 25.9499L24.4456 24.7451C24.4624 24.6614 24.4965 24.5821 24.5458 24.5119C24.5951 24.4418 24.6586 24.3824 24.7323 24.3374C24.806 24.2924 24.8884 24.2628 24.9743 24.2504C25.0601 24.2381 25.1477 24.2432 25.2314 24.2656C25.3152 24.2879 25.3933 24.3269 25.4611 24.3802C25.5288 24.4335 25.5846 24.4999 25.6251 24.5753C25.6656 24.6507 25.6898 24.7335 25.6962 24.8185C25.7027 24.9036 25.6913 24.989 25.6627 25.0695L25.3278 26.2743C25.3037 26.3646 25.2588 26.4484 25.1967 26.5191C25.1345 26.5897 25.0567 26.6455 24.9693 26.6821L24.8702 27.1733H28.0591H31.4413L31.3423 26.7099C31.2545 26.673 31.1762 26.6172 31.1134 26.5466C31.0505 26.476 31.0046 26.3925 30.979 26.3021L30.6488 25.0973C30.6266 25.0191 30.6204 24.9373 30.6304 24.8568C30.6405 24.7762 30.6666 24.6983 30.7074 24.6277C30.7482 24.5571 30.8027 24.4951 30.868 24.4453C30.9332 24.3954 31.0078 24.3587 31.0875 24.3373C31.1424 24.3309 31.1978 24.3309 31.2526 24.3373C31.3925 24.3377 31.5283 24.3833 31.6391 24.467C31.7499 24.5508 31.8296 24.668 31.8659 24.8007L32.1961 26.0055C32.2113 26.0902 32.2086 26.1771 32.1883 26.2608C32.1681 26.3445 32.1306 26.4232 32.0781 26.4921L32.2291 27.1779C34.55 27.1779 35.7387 27.2011 35.7387 27.2011C35.7387 27.2011 34.9085 21.8952 34.6349 21.2464L30.8092 19.8887L29.2478 25.1065L28.5072 21.3993L29.1959 19.8979H26.9175L27.6062 21.3993L26.8656 25.1065L25.3089 19.8887L21.4832 21.2464C21.2285 21.8952 20.3652 27.2011 20.3652 27.2011Z" fill="#E1E1E1"/>
<path d="M54.295 14.528L54.4648 15.9182C54.5202 16.1261 54.6474 16.3087 54.8247 16.4346C55.0019 16.5606 55.2182 16.6221 55.4366 16.6087L56.5168 18.073C56.4748 18.1544 56.4582 18.2463 56.4691 18.337C56.48 18.4277 56.5179 18.5132 56.5782 18.5827L57.5216 19.7134C57.6035 19.8105 57.7214 19.8716 57.8492 19.8834C57.9771 19.8951 58.1044 19.8565 58.2032 19.776C58.3021 19.6955 58.3643 19.5797 58.3763 19.4541C58.3882 19.3286 58.3489 19.2035 58.2669 19.1064L57.3235 17.9757C57.2589 17.8974 57.17 17.8419 57.0704 17.8176C56.9708 17.7934 56.8659 17.8017 56.7716 17.8413L55.663 16.3538L55.3517 13.7634C55.3517 13.6754 55.3517 13.5919 55.3517 13.5039C55.326 12.9984 55.4052 12.493 55.5845 12.0185C55.7637 11.544 56.0393 11.1102 56.3944 10.7435C56.7496 10.3768 57.1769 10.0848 57.6504 9.88529C58.1239 9.68579 58.6338 9.58292 59.149 9.58292C59.6643 9.58292 60.1742 9.68579 60.6477 9.88529C61.1212 10.0848 61.5485 10.3768 61.9037 10.7435C62.2588 11.1102 62.5344 11.544 62.7136 12.0185C62.8929 12.493 62.9721 12.9984 62.9464 13.5039C62.9464 13.5873 62.9464 13.6707 62.9464 13.7588L62.6115 16.5901H62.6728C62.9202 16.6472 63.1805 16.6082 63.3994 16.4813C63.6182 16.3543 63.7788 16.1493 63.8474 15.9089L64.0125 14.5187C64.0141 14.3171 63.9452 14.121 63.8172 13.9632C63.6893 13.8055 63.5101 13.6957 63.3097 13.6522C63.3097 13.6012 63.3097 13.5502 63.3097 13.4946C63.3365 12.9421 63.2488 12.3901 63.0521 11.8718C62.8553 11.3536 62.5535 10.8799 62.165 10.4796C61.7764 10.0793 61.3092 9.76063 60.7916 9.5429C60.274 9.32516 59.7168 9.21289 59.1538 9.21289C58.5907 9.21289 58.0335 9.32516 57.5159 9.5429C56.9983 9.76063 56.5311 10.0793 56.1426 10.4796C55.754 10.8799 55.4522 11.3536 55.2555 11.8718C55.0587 12.3901 54.9711 12.9421 54.9979 13.4946C54.9979 13.5502 54.9979 13.6012 54.9979 13.6522C54.7962 13.6968 54.6163 13.8082 54.4884 13.9677C54.3604 14.1271 54.2921 14.325 54.295 14.528Z" fill="#E1E1E1"/>
<path d="M61.5079 11.4463C61.5079 11.4463 61.0739 10.0561 58.6163 10.4546C58.2334 10.4752 57.8604 10.581 57.5253 10.764C57.1902 10.947 56.9019 11.2025 56.6822 11.5112C56.5467 11.5366 56.422 11.6015 56.3245 11.6973C56.2269 11.7931 56.1609 11.9156 56.135 12.0487C55.8708 12.7484 55.8567 15.3342 56.2388 16.5066C56.3759 16.9307 56.5883 17.3276 56.8662 17.679C56.9006 17.6745 56.9355 17.6745 56.9699 17.679C57.0609 17.682 57.1502 17.7042 57.2316 17.7442C57.313 17.7842 57.3847 17.841 57.4417 17.9107L58.0313 18.6058C58.379 18.7567 58.7551 18.8341 59.1352 18.8328C60.4843 18.8328 61.6353 17.7624 62.0598 16.5715C62.5546 15.112 62.6265 13.546 62.2674 12.0487C62.008 11.3351 61.5079 11.4463 61.5079 11.4463Z" fill="#E1E1E1"/>
<path d="M52.1303 35.2464H54.2201L55.489 48.5273H62.6167L63.8904 35.2464H65.9754L68.2491 28.3325H63.1687L62.9139 27.1786L62.7394 26.414C62.7998 26.3641 62.8446 26.2986 62.8688 26.2248C62.893 26.151 62.8956 26.0721 62.8762 25.997L62.5413 24.7921C62.5279 24.7451 62.5055 24.7011 62.4752 24.6624L62.4375 24.6253C62.4174 24.6016 62.3935 24.5812 62.3667 24.5651C62.3511 24.5531 62.3336 24.5437 62.3148 24.5373C62.2901 24.5232 62.2629 24.5138 62.2346 24.5094H62.1733H62.145C62.109 24.5049 62.0725 24.5049 62.0365 24.5094C61.9845 24.5234 61.9357 24.5473 61.8931 24.5798C61.8504 24.6123 61.8147 24.6527 61.788 24.6987C61.7612 24.7448 61.744 24.7956 61.7373 24.8482C61.7306 24.9008 61.7345 24.9542 61.7488 25.0053L62.0837 26.2101C62.104 26.2863 62.1465 26.3549 62.206 26.4076C62.2655 26.4603 62.3394 26.4948 62.4186 26.5067L62.7818 28.3186H55.3145L55.6777 26.5067C55.7577 26.4956 55.8327 26.4616 55.8931 26.4088C55.9535 26.356 55.9967 26.2869 56.0173 26.2101L56.3523 25.0053C56.381 24.902 56.3669 24.7918 56.3129 24.6988C56.2589 24.6058 56.1696 24.5377 56.0645 24.5094C55.9594 24.4812 55.8472 24.4951 55.7525 24.5481C55.6579 24.6011 55.5885 24.6889 55.5598 24.7921L55.2248 25.997C55.2043 26.0716 55.2059 26.1505 55.2292 26.2243C55.2526 26.2982 55.2969 26.364 55.3569 26.414L54.9276 28.3186H49.8613L52.1303 35.2464Z" fill="#E1E1E1"/>
<path d="M0 44.6929C0 46.3497 1.34315 47.6929 3 47.6929H22.4594C22.8993 47.6929 23.2437 47.3143 23.2021 46.8764C23.1658 46.4933 22.8442 46.2007 22.4594 46.2007H4.51895C2.86209 46.2007 1.51895 44.8576 1.51895 43.2007V4.49214C1.51895 2.83528 2.8621 1.49214 4.51895 1.49214H81.4763C83.1332 1.49214 84.4763 2.83529 84.4763 4.49214V43.2007C84.4763 44.8576 83.1332 46.2007 81.4763 46.2007H64.7508C64.3669 46.2007 64.0457 46.492 64.0083 46.874C63.9653 47.3127 64.31 47.6929 64.7508 47.6929H83C84.6569 47.6929 86 46.3497 86 44.6929V3C86 1.34315 84.6569 0 83 0H3C1.34315 0 0 1.34315 0 3V44.6929Z" fill="#E1E1E1"/>
<path d="M33.0293 47.6933H54.1767L54.0352 46.2012H33.1708L33.0293 47.6933Z" fill="#E1E1E1"/>
<path d="M64.7013 49.2451H53.4082V53.2072H64.7013V49.2451Z" fill="#E1E1E1"/>
<path d="M51.4551 27.201C51.4551 27.201 52.6438 27.201 54.9647 27.1779L55.1157 26.492C55.0583 26.4159 55.0193 26.328 55.0013 26.2349C54.9833 26.1418 54.9869 26.046 55.0119 25.9545L55.3421 24.7497C55.3781 24.6178 55.4571 24.5011 55.567 24.4174C55.6769 24.3337 55.8116 24.2877 55.9506 24.2863C56.007 24.2795 56.064 24.2795 56.1204 24.2863C56.2816 24.3296 56.4187 24.4339 56.5018 24.5764C56.5849 24.7188 56.6072 24.8877 56.5639 25.0462L56.2289 26.2511C56.204 26.3417 56.1583 26.4256 56.0954 26.4963C56.0324 26.567 55.9539 26.6226 55.8657 26.6589L55.7714 27.1223H59.1489H62.3377L62.2387 26.6311C62.1516 26.5939 62.0741 26.5379 62.0121 26.4673C61.95 26.3967 61.9049 26.3133 61.8802 26.2233L61.5453 25.0184C61.5167 24.9379 61.5052 24.8525 61.5117 24.7675C61.5182 24.6825 61.5424 24.5997 61.5829 24.5243C61.6233 24.4489 61.6792 24.3825 61.7469 24.3292C61.8146 24.2759 61.8928 24.2368 61.9765 24.2145C62.0603 24.1922 62.1478 24.1871 62.2337 24.1994C62.3196 24.2118 62.4019 24.2414 62.4756 24.2864C62.5493 24.3313 62.6128 24.3908 62.6622 24.4609C62.7115 24.531 62.7456 24.6104 62.7623 24.694L63.0972 25.8989C63.1226 25.9906 63.126 26.0869 63.1071 26.1802C63.0883 26.2734 63.0478 26.3611 62.9887 26.4364L63.1444 27.1223L66.8427 27.1454C66.8427 27.1454 65.9936 21.8395 65.7247 21.1908L61.9038 19.833L60.3424 25.0509L59.6018 21.3437L60.2952 19.8423H58.0215L58.7102 21.3437L57.9696 25.0509L56.4129 19.833L52.5872 21.1908C52.3042 21.8951 51.4551 27.201 51.4551 27.201Z" fill="#E1E1E1"/>
<path d="M14.0106 59.7783C14.1946 60.3482 14.4824 60.7699 14.8597 60.7468C15.3315 62.0628 16.0957 62.9757 17.3929 62.9757C18.6901 62.9757 19.4732 62.0489 19.9261 60.7468C20.3129 60.7468 20.5912 60.3482 20.7752 59.7783C21.0488 58.8978 20.7752 58.5873 20.3553 58.4808V58.453C20.4482 57.8144 20.4242 57.1647 20.2846 56.5345C20.2572 56.4062 20.1898 56.2895 20.0917 56.2006C19.9936 56.1118 19.8697 56.0551 19.7374 56.0387C19.3364 55.3018 18.3222 55.0748 17.8033 54.9589C15.1664 54.3519 15.1381 55.9784 15.1381 55.9784C15.0523 55.9581 14.9629 55.9572 14.8767 55.9756C14.7905 55.9941 14.7097 56.0315 14.6403 56.0849C14.5708 56.1384 14.5146 56.2067 14.4759 56.2845C14.4371 56.3624 14.4167 56.4478 14.4163 56.5345C14.3694 57.1762 14.3694 57.8205 14.4163 58.4622C14.0342 58.6012 13.737 58.9117 14.0106 59.7783Z" fill="#E1E1E1"/>
<path d="M30.8936 59.5563C31.0728 60.1309 31.3653 60.5526 31.7427 60.5294C32.1908 61.8454 32.9833 62.7537 34.2758 62.7537C35.5683 62.7537 36.3561 61.8269 36.8043 60.5248C37.1958 60.5526 37.4741 60.1309 37.6581 59.5563C37.9317 58.6758 37.6581 58.37 37.2382 58.2588C37.3283 57.612 37.3012 56.9546 37.158 56.3171C37.1304 56.1894 37.0628 56.0733 36.9647 55.9852C36.8666 55.8972 36.7428 55.8414 36.6108 55.8259C36.2052 55.0845 35.1957 54.8574 34.6768 54.7416C32.0398 54.1391 32.0068 55.761 32.0068 55.761C31.9205 55.7421 31.831 55.7427 31.7449 55.7626C31.6589 55.7826 31.5785 55.8215 31.51 55.8763C31.4414 55.9312 31.3864 56.0006 31.3491 56.0794C31.3118 56.1581 31.2931 56.2442 31.2945 56.331C31.2475 56.9728 31.2475 57.617 31.2945 58.2588C30.9171 58.3885 30.62 58.6758 30.8936 59.5563Z" fill="#E1E1E1"/>
<path d="M47.7959 59.6398C47.9752 60.2097 48.2676 60.6268 48.645 60.6036C49.1167 61.9243 49.8856 62.8326 51.1734 62.8326C52.4613 62.8326 53.2585 61.9058 53.7113 60.6036C54.1029 60.6268 54.3765 60.2097 54.5557 59.6398C54.834 58.7593 54.5557 58.4488 54.1406 58.3376C54.2332 57.6894 54.206 57.0301 54.0604 56.3913C54.0311 56.2639 53.9631 56.1483 53.8654 56.0597C53.7676 55.9712 53.6448 55.9139 53.5132 55.8955C53.1122 55.1587 52.098 54.9363 51.5791 54.8158C48.9422 54.2134 48.9092 55.8353 48.9092 55.8353C48.8229 55.8163 48.7333 55.8169 48.6473 55.8368C48.5612 55.8568 48.4809 55.8957 48.4123 55.9506C48.3437 56.0054 48.2887 56.0748 48.2514 56.1536C48.2141 56.2323 48.1955 56.3184 48.1969 56.4052C48.15 57.0485 48.15 57.6943 48.1969 58.3376C47.8195 58.4488 47.5223 58.7593 47.7959 59.6398Z" fill="#E1E1E1"/>
<path d="M64.3611 59.7134C64.5451 60.288 64.8328 60.7051 65.2102 60.6819C65.6819 62.0026 66.4508 62.9108 67.7434 62.9108C69.0359 62.9108 69.8237 61.984 70.2765 60.6819C70.6633 60.7051 70.9416 60.288 71.1209 59.7134C71.3992 58.8376 71.1209 58.5271 70.7058 58.4159C70.7958 57.7675 70.7687 57.1087 70.6256 56.4696C70.5961 56.3428 70.5279 56.2278 70.4301 56.14C70.3323 56.0523 70.2096 55.9959 70.0784 55.9784C69.6774 55.2416 68.6632 55.0192 68.1443 54.8987C65.5074 54.2916 65.4744 55.9135 65.4744 55.9135C65.3878 55.8954 65.2981 55.8967 65.2121 55.9173C65.1261 55.9379 65.0459 55.9773 64.9775 56.0325C64.909 56.0877 64.8541 56.1573 64.8169 56.2362C64.7796 56.3151 64.7608 56.4012 64.7621 56.4882C64.7126 57.1298 64.7126 57.7742 64.7621 58.4159C64.38 58.5271 64.0875 58.8515 64.3611 59.7134Z" fill="#E1E1E1"/>
<path d="M5.4428 65.3388C5.62205 65.9134 5.91452 66.3305 6.28719 66.3073C6.75891 67.628 7.52782 68.5362 8.82034 68.5362C10.1129 68.5362 10.9006 67.6094 11.3535 66.3073C11.745 66.3305 12.0186 65.9134 12.2026 65.3388C12.4762 64.4583 12.2026 64.1525 11.7875 64.0413V64.0181C11.8776 63.3713 11.8504 62.714 11.7073 62.0765C11.5705 61.7058 11.3535 61.6131 11.1554 61.5853C10.7544 60.8438 9.74021 60.6168 9.22131 60.5009C6.58437 59.8939 6.55607 61.5204 6.55607 61.5204C6.46967 61.5005 6.37979 61.5004 6.29333 61.52C6.20687 61.5396 6.12614 61.5784 6.05734 61.6334C5.98854 61.6885 5.93352 61.7583 5.89649 61.8375C5.85947 61.9167 5.84143 62.0032 5.84377 62.0904C5.79777 62.7322 5.79777 63.3763 5.84377 64.0181C5.84195 64.0257 5.84195 64.0337 5.84377 64.0413C5.46167 64.1293 5.18807 64.4352 5.4428 65.3388Z" fill="#E1E1E1"/>
<path d="M22.4547 65.3112C22.6339 65.8858 22.9264 66.3029 23.3038 66.2843C23.7755 67.5957 24.5444 68.5086 25.8322 68.5086C27.12 68.5086 27.9172 67.5818 28.3654 66.2797C28.7569 66.3029 29.0352 65.8858 29.2145 65.3112C29.4928 64.4307 29.2145 64.1249 28.7993 64.0137C28.8895 63.3667 28.8607 62.709 28.7144 62.072C28.6886 61.9438 28.6223 61.8269 28.5249 61.7378C28.4275 61.6488 28.304 61.5923 28.172 61.5762C27.7663 60.8394 26.7568 60.6123 26.2332 60.4918C23.5868 59.8663 23.5868 61.4928 23.5868 61.4928C23.5004 61.4729 23.4105 61.4728 23.3241 61.4924C23.2376 61.512 23.1569 61.5508 23.0881 61.6058C23.0193 61.6609 22.9642 61.7307 22.9272 61.8099C22.8902 61.8891 22.8722 61.9756 22.8745 62.0628C22.8275 62.7045 22.8275 63.3488 22.8745 63.9905C22.4735 64.1249 22.1716 64.4122 22.4547 65.3112Z" fill="#E1E1E1"/>
<path d="M39.4116 65.3109C39.5909 65.8855 39.8834 66.3026 40.2607 66.2794C40.7325 67.6001 41.4967 68.5037 42.7892 68.5037C44.0817 68.5037 44.8695 67.5769 45.3223 66.2748C45.7139 66.3026 45.9922 65.8855 46.1714 65.3109C46.445 64.4304 46.1714 64.12 45.7563 64.0134C45.8464 63.365 45.8192 62.7062 45.6761 62.0671C45.6463 61.9396 45.5774 61.8242 45.4787 61.7363C45.38 61.6485 45.2563 61.5925 45.1242 61.5759C44.7233 60.8391 43.709 60.612 43.1901 60.4916C40.5532 59.8891 40.5249 61.511 40.5249 61.511C40.4383 61.4929 40.3487 61.4942 40.2626 61.5148C40.1766 61.5354 40.0964 61.5748 40.028 61.63C39.9596 61.6852 39.9047 61.7548 39.8674 61.8337C39.8301 61.9126 39.8114 61.9987 39.8126 62.0857C39.7666 62.7274 39.7666 63.3716 39.8126 64.0134C39.4305 64.12 39.1522 64.4119 39.4116 65.3109Z" fill="#E1E1E1"/>
<path d="M60.0417 68.5037C61.3342 68.5037 62.1267 67.5769 62.5748 66.2748C62.9664 66.3026 63.2447 65.8855 63.4239 65.3109C63.7022 64.4304 63.4239 64.12 63.0088 64.0134C63.0989 63.365 63.0717 62.7062 62.9286 62.0671C62.9004 61.9397 62.8326 61.824 62.7345 61.736C62.6365 61.648 62.5132 61.5921 62.3814 61.5759C61.9757 60.8391 60.9663 60.612 60.4426 60.4916C57.8104 59.8891 57.7774 61.511 57.7774 61.511C57.6908 61.4929 57.6012 61.4942 57.5151 61.5148C57.4291 61.5354 57.3489 61.5748 57.2805 61.63C57.2121 61.6852 57.1572 61.7548 57.1199 61.8337C57.0826 61.9126 57.0639 61.9987 57.0651 62.0857C57.0156 62.7273 57.0156 63.3717 57.0651 64.0134C56.6688 64.12 56.3717 64.4304 56.65 65.3109C56.8292 65.8855 57.1217 66.3026 57.4991 66.2794C57.9661 67.6001 58.7491 68.5037 60.0417 68.5037Z" fill="#E1E1E1"/>
<path d="M1.75391 76.5951C1.75391 76.5951 4.14555 78.9724 8.72599 79.0002C13.3064 79.028 15.8868 76.5951 15.8868 76.5951C15.8868 76.5951 15.1084 71.7295 14.8631 71.1271C12.9474 70.3399 10.8966 69.9184 8.82033 69.8852C4.89087 69.8203 2.77755 71.1271 2.77755 71.1271C2.53225 71.7295 1.75391 76.5951 1.75391 76.5951Z" fill="#E1E1E1"/>
<path d="M73.7968 65.0978C73.976 65.6677 74.2685 66.0894 74.6411 66.0616C75.1129 67.3823 75.8865 68.2952 77.1743 68.2952C78.4621 68.2952 79.2593 67.3684 79.7075 66.0663C80.0943 66.0894 80.3773 65.6677 80.5566 65.0978C80.8302 64.2173 80.5566 63.9068 80.1414 63.7956C80.1884 63.1539 80.1884 62.5096 80.1414 61.8679C80.1436 61.7806 80.1255 61.6941 80.0885 61.6147C80.0515 61.5354 79.9965 61.4654 79.9279 61.41C79.8592 61.3546 79.7786 61.3153 79.6922 61.2951C79.6058 61.2749 79.5158 61.2742 79.4291 61.2933C79.4291 61.2933 79.3961 59.6714 76.7639 60.2738C76.2308 60.3896 75.2308 60.6213 74.8251 61.3581C74.6934 61.3743 74.57 61.4303 74.472 61.5182C74.374 61.6062 74.3062 61.7219 74.2779 61.8493C74.1323 62.4881 74.1051 63.1474 74.1977 63.7956V63.8234C73.8156 63.9068 73.5184 64.2173 73.7968 65.0978Z" fill="#E1E1E1"/>
<path d="M77.1739 69.6674C75.0995 69.6955 73.0498 70.1139 71.1358 70.9C70.8905 71.4978 70.1074 76.3681 70.1074 76.3681C70.1074 76.3681 72.6925 78.7778 77.2682 78.7778C81.8439 78.7778 84.245 76.3774 84.245 76.3774C84.245 76.3774 83.4666 71.5071 83.2166 70.9093C83.2166 70.9 81.108 69.6025 77.1739 69.6674Z" fill="#E1E1E1"/>
<path d="M31.8748 71.1218C29.96 70.3324 27.9085 69.9123 25.832 69.8845C21.9026 69.815 19.794 71.1218 19.794 71.1218C19.544 71.7196 18.7656 76.5899 18.7656 76.5899C18.7656 76.5899 21.1573 78.9671 25.7424 78.9903C30.3276 79.0134 32.9032 76.5899 32.9032 76.5899C32.9032 76.5899 32.1248 71.7196 31.8748 71.1218Z" fill="#E1E1E1"/>
<path d="M49.8622 76.5906C49.8622 76.5906 49.0791 71.7203 48.8338 71.1225C46.9192 70.332 44.8677 69.9104 42.791 69.8806C38.8616 69.8111 36.7482 71.1225 36.7482 71.1225C36.503 71.7203 35.7246 76.5906 35.7246 76.5906C35.7246 76.5906 38.1162 78.9678 42.7014 78.991C47.2866 79.0142 49.8622 76.5906 49.8622 76.5906Z" fill="#E1E1E1"/>
<path d="M60.041 69.8806C56.1116 69.8111 54.003 71.1225 54.003 71.1225C53.753 71.7203 52.9746 76.5906 52.9746 76.5906C52.9746 76.5906 55.3662 78.9678 59.9514 78.991C64.5366 79.0142 67.1122 76.5906 67.1122 76.5906C67.1122 76.5906 66.3338 71.7203 66.0838 71.1225C64.1689 70.3328 62.1176 69.9112 60.041 69.8806Z" fill="#E1E1E1"/>
<path d="M12.3262 67.2625C12.0721 67.8615 11.6928 68.4014 11.2129 68.8473C12.6554 69.049 14.0641 69.4386 15.4018 70.0058L15.8452 70.2097L16.0339 70.6731C16.2488 71.3954 16.4158 72.1307 16.5339 72.8742C16.7839 72.8742 17.034 72.902 17.2981 72.902C17.5623 72.902 17.8548 72.902 18.1189 72.8696C18.2371 72.126 18.4041 71.3908 18.619 70.6684L18.7746 70.2977L19.1143 70.0846C20.4286 69.3815 21.8714 68.9406 23.3598 68.787C22.9162 68.3553 22.5636 67.842 22.322 67.2764C21.7747 66.8967 21.3886 66.3327 21.237 65.6915C21.0825 65.2445 21.0436 64.7668 21.1238 64.3013C19.8997 63.9997 18.6448 63.8349 17.383 63.8101C16.0752 63.7777 14.769 63.9212 13.5008 64.2365C13.6044 64.7289 13.5702 65.2398 13.4017 65.7147C13.2434 66.3405 12.8618 66.8897 12.3262 67.2625Z" fill="#E1E1E1"/>
<path d="M35.7293 70.2789L36.0736 70.0704C37.3876 69.3665 38.8306 68.9255 40.3191 68.7729C39.8798 68.3387 39.5291 67.8259 39.2861 67.2622C38.8087 66.8887 38.448 66.3907 38.2453 65.8253C38.0425 65.2598 38.006 64.6497 38.1398 64.0648C36.8755 63.7439 35.5772 63.5697 34.2716 63.5458C32.9802 63.5128 31.6901 63.6515 30.4365 63.9582C30.635 64.5147 30.635 65.1209 30.4365 65.6774C30.2801 66.3176 29.8931 66.8806 29.3468 67.2622C29.0943 67.8582 28.7165 68.395 28.2383 68.8378C29.6788 69.0415 31.0857 69.4311 32.4225 69.9962L32.8942 70.2048L33.0829 70.6682C33.2831 71.3156 33.4407 71.9749 33.5546 72.6422C33.7763 72.6422 33.998 72.6654 34.2292 72.6654C34.5547 72.6654 34.866 72.6654 35.1726 72.6283C35.286 71.9655 35.4436 71.3107 35.6443 70.6682L35.7293 70.2789Z" fill="#E1E1E1"/>
<path d="M52.8332 70.6493L52.9841 70.2786L53.3237 70.07C54.6377 69.3661 56.0807 68.9251 57.5693 68.7725C57.1258 68.339 56.7732 67.8241 56.5315 67.2572C55.984 66.8789 55.5964 66.3168 55.4418 65.677C55.2789 65.209 55.2447 64.7071 55.3427 64.222C53.9806 63.8506 52.5765 63.6483 51.1632 63.6195C49.8932 63.5889 48.6246 63.7214 47.3895 64.0134C47.5603 64.5574 47.5471 65.1411 47.3517 65.677C47.1999 66.3168 46.8137 66.8793 46.2668 67.2572C46.0135 67.8542 45.6359 68.3924 45.1582 68.8374C46.5985 69.0421 48.0053 69.4316 49.3424 69.9959L49.7858 70.2044L49.9745 70.6678C50.1777 71.3443 50.3352 72.0331 50.4462 72.7299C50.6444 72.7299 50.8425 72.7531 51.0548 72.7531C51.4819 72.7503 51.9086 72.7255 52.3331 72.679C52.4513 71.9918 52.6184 71.3135 52.8332 70.6493Z" fill="#E1E1E1"/>
<path d="M70.598 69.7831C71.8548 69.2545 73.1729 68.8794 74.5227 68.6663C74.5227 68.5458 74.4803 68.4207 74.4567 68.2956C74.1342 67.9188 73.8703 67.4972 73.6736 67.0444C73.1263 66.6647 72.7402 66.1007 72.5887 65.4596C72.4818 65.1331 72.4277 64.7923 72.4283 64.4494C70.9102 63.9855 69.3335 63.7328 67.7441 63.6987C66.6986 63.6736 65.6534 63.7575 64.626 63.9489C64.827 64.5081 64.827 65.1181 64.626 65.6774C64.473 66.3179 64.085 66.8805 63.5363 67.2576C63.2831 67.8545 62.9054 68.3928 62.4277 68.8377C63.8681 69.0424 65.2748 69.4319 66.6119 69.9962L67.0837 70.2048L67.2676 70.6682C67.4848 71.3755 67.6503 72.0971 67.7629 72.8276C68.3347 72.8187 68.9052 72.7723 69.4706 72.6886C69.5895 71.9356 69.7581 71.1911 69.9753 70.4596L70.164 69.9962L70.598 69.7831Z" fill="#E1E1E1"/>
</g>
<defs>
<clipPath id="clip0_403_1309">
<rect width="86" height="79" fill="white"/>
</clipPath>
</defs>
</svg>
