<svg width="64" height="64" viewBox="0 0 64 64" fill="none" xmlns="http://www.w3.org/2000/svg">
<circle cx="32" cy="32" r="30" stroke="#003641" stroke-width="4"/>
<path d="M44.8 19H19.2C18.3513 19 17.5374 19.3424 16.9373 19.9519C16.3371 20.5614 16 21.388 16 22.25V41.75C16 42.612 16.3371 43.4386 16.9373 44.0481C17.5374 44.6576 18.3513 45 19.2 45H44.8C45.6487 45 46.4626 44.6576 47.0627 44.0481C47.6629 43.4386 48 42.612 48 41.75V22.25C48 21.388 47.6629 20.5614 47.0627 19.9519C46.4626 19.3424 45.6487 19 44.8 19ZM44.8 25.8835L32 33.8167L19.2 25.8835V22.25H44.8V25.8835Z" fill="#003641"/>
</svg>
