<svg width="52" height="64" viewBox="0 0 52 64" fill="none" xmlns="http://www.w3.org/2000/svg">
<path d="M25.6017 0C15.0557 0 6.40039 8.6272 6.40039 19.1501C6.40039 23.2282 7.70599 27.0285 9.90759 30.1414L9.82887 30.0186L22.1207 51.2653L22.1828 51.3466C22.6782 51.993 23.1684 52.5139 23.7617 52.9062C24.355 53.2986 25.1146 53.5462 25.8609 53.4714C27.3521 53.3216 28.2186 52.2912 29.0193 51.2058L29.0692 51.1386L42.6206 28.0768L42.6314 28.0576C42.9559 27.472 43.1908 26.8813 43.3918 26.3091C44.3211 24.0367 44.7995 21.6052 44.8004 19.1501C44.8004 8.6272 36.1476 0 25.6017 0ZM25.6017 3.2C34.4042 3.2 41.6004 10.3795 41.6004 19.1501C41.601 21.1986 41.2009 23.2275 40.4228 25.1226L40.4068 25.1622L40.3927 25.2038C40.2244 25.6883 40.0414 26.128 39.8302 26.5094L26.4164 49.3357C25.8231 50.1171 25.4084 50.3021 25.5415 50.288C25.61 50.2816 25.6734 50.3354 25.5268 50.2381C25.3866 50.1453 25.1006 49.8733 24.7614 49.4406L12.5636 28.352L12.5207 28.2925C10.682 25.6941 9.60039 22.5472 9.60039 19.1501C9.60039 10.3802 16.7991 3.2 25.6017 3.2ZM25.6017 8.224C19.546 8.224 14.6481 13.1046 14.6481 19.1501C14.6481 25.1955 19.5466 30.0762 25.6017 30.0762C31.6567 30.0762 36.5527 25.1949 36.5527 19.1501C36.5527 13.1046 31.6567 8.224 25.6017 8.224ZM25.6017 11.424C29.9646 11.424 33.3527 14.8064 33.3527 19.1501C33.3527 23.4938 29.9652 26.8762 25.6017 26.8762C21.2382 26.8762 17.8481 23.4931 17.8481 19.1501C17.8481 14.8064 21.2388 11.424 25.6017 11.424Z" fill="#003641"/>
<path d="M15.3638 44.1963C6.3232 45.4737 0 48.5297 0 53.0283C0 59.0878 10.5651 63.9998 25.6 63.9998C40.6349 63.9998 51.2 59.0878 51.2 53.0283C51.2 48.5297 44.8774 45.4737 35.8374 44.1963L34.585 46.3288C41.3984 47.274 46.08 49.2606 46.08 51.5659C46.08 54.7979 36.9107 57.4174 25.6 57.4174C14.2893 57.4174 5.12 54.7979 5.12 51.5659C5.11936 49.2683 9.77024 47.2837 16.6048 46.3345C16.192 45.6216 15.7766 44.9099 15.3632 44.1963H15.3638Z" fill="#003641"/>
</svg>
