<svg width="64" height="64" viewBox="0 0 64 64" fill="none" xmlns="http://www.w3.org/2000/svg">
<path d="M50 42.642C50 43.0895 49.9171 43.6737 49.7514 44.3945C49.5857 45.1154 49.4117 45.683 49.2294 46.0973C48.8814 46.9259 47.8705 47.8042 46.1967 48.7322C44.639 49.5774 43.0978 50 41.5732 50C41.1257 50 40.6866 49.971 40.2557 49.913C39.8248 49.855 39.3484 49.7514 38.8263 49.6023C38.3043 49.4531 37.9149 49.333 37.658 49.2418C37.4012 49.1507 36.9413 48.9808 36.2784 48.7322C35.6155 48.4837 35.2095 48.3345 35.0604 48.2848C33.4363 47.7048 31.9863 47.017 30.7102 46.2216C28.6056 44.9124 26.4181 43.1226 24.1477 40.8523C21.8774 38.5819 20.0876 36.3944 18.7784 34.2898C17.983 33.0137 17.2952 31.5637 16.7152 29.9396C16.6655 29.7905 16.5163 29.3845 16.2678 28.7216C16.0192 28.0587 15.8493 27.5988 15.7582 27.342C15.667 27.0851 15.5469 26.6957 15.3977 26.1737C15.2486 25.6516 15.145 25.1752 15.087 24.7443C15.029 24.3134 15 23.8743 15 23.4268C15 21.9022 15.4226 20.361 16.2678 18.8033C17.1958 17.1295 18.0741 16.1186 18.9027 15.7706C19.317 15.5883 19.8846 15.4143 20.6055 15.2486C21.3263 15.0829 21.9105 15 22.358 15C22.59 15 22.764 15.0249 22.88 15.0746C23.1783 15.174 23.6174 15.8037 24.1974 16.9638C24.3797 17.2786 24.6283 17.7261 24.9432 18.3061C25.258 18.8861 25.5481 19.4123 25.8132 19.8846C26.0784 20.3569 26.3352 20.8002 26.5838 21.2145C26.6335 21.2808 26.7785 21.4879 27.0188 21.8359C27.2591 22.1839 27.4373 22.4781 27.5533 22.7184C27.6693 22.9587 27.7273 23.1948 27.7273 23.4268C27.7273 23.7583 27.4911 24.1726 27.0188 24.6697C26.5465 25.1669 26.0328 25.6226 25.4776 26.0369C24.9225 26.4512 24.4087 26.8904 23.9364 27.3544C23.4641 27.8184 23.228 28.1996 23.228 28.4979C23.228 28.647 23.2694 28.8335 23.3523 29.0572C23.4351 29.2809 23.5056 29.4508 23.5636 29.5668C23.6216 29.6828 23.7376 29.8816 23.9116 30.1634C24.0856 30.4451 24.1809 30.6025 24.1974 30.6357C25.4569 32.906 26.8987 34.8532 28.5227 36.4773C30.1468 38.1013 32.094 39.5431 34.3643 40.8026C34.3975 40.8191 34.5549 40.9144 34.8366 41.0884C35.1184 41.2624 35.3172 41.3784 35.4332 41.4364C35.5492 41.4944 35.7191 41.5649 35.9428 41.6477C36.1665 41.7306 36.353 41.772 36.5021 41.772C36.8004 41.772 37.1816 41.5359 37.6456 41.0636C38.1096 40.5913 38.5488 40.0775 38.9631 39.5224C39.3774 38.9672 39.8331 38.4535 40.3303 37.9812C40.8274 37.5089 41.2417 37.2727 41.5732 37.2727C41.8052 37.2727 42.0413 37.3307 42.2816 37.4467C42.5219 37.5627 42.8161 37.7409 43.1641 37.9812C43.5121 38.2215 43.7192 38.3665 43.7855 38.4162C44.1998 38.6648 44.6431 38.9216 45.1154 39.1868C45.5877 39.4519 46.1139 39.742 46.6939 40.0568C47.2739 40.3717 47.7214 40.6203 48.0362 40.8026C49.1963 41.3826 49.826 41.8217 49.9254 42.12C49.9751 42.236 50 42.41 50 42.642Z" fill="#003641"/>
<circle cx="32" cy="32" r="30" stroke="#003641" stroke-width="4"/>
</svg>
