<svg width="61" height="64" viewBox="0 0 61 64" fill="none" xmlns="http://www.w3.org/2000/svg">
<path d="M54.121 6.232C52.5255 4.76969 46.0684 0.107773 31.6716 0.0452807C31.6716 0.0452807 14.6995 -0.967092 6.43335 6.58196C1.83544 11.1564 0.214868 17.868 0.0389921 26.1795C-0.136884 34.491 -0.350449 50.064 14.7372 54.2885H14.7498L14.7372 60.7377C14.7372 60.7377 14.6367 63.3498 16.3704 63.8748C18.4558 64.5247 19.6869 62.5374 21.6843 60.4002C22.7773 59.2253 24.2848 57.5006 25.428 56.1882C35.7545 57.0506 43.6815 55.0759 44.586 54.7884C46.6714 54.1135 58.4676 52.6137 60.3772 37.0406C62.362 20.9676 59.4224 10.8189 54.121 6.232ZM55.8672 35.8658C54.2466 48.8641 44.6865 49.689 42.9277 50.2515C42.1739 50.4889 35.2017 52.2137 26.4456 51.6513C26.4456 51.6513 19.913 59.4878 17.8779 61.5251C17.2121 62.1875 16.4834 62.125 16.496 60.8126C16.496 59.9503 16.5462 50.1015 16.5462 50.1015C16.5337 50.1015 16.5337 50.1015 16.5462 50.1015C3.75752 46.5769 4.51128 33.3161 4.64947 26.3795C4.78765 19.4428 6.10673 13.7561 10.0011 9.93154C16.9985 3.61983 31.4078 4.55721 31.4078 4.55721C43.581 4.60721 49.41 8.25675 50.7668 9.4816C55.2516 13.3061 57.538 22.455 55.8672 35.8658ZM38.4052 25.767C38.4554 26.8419 36.8348 26.9169 36.7846 25.842C36.6464 23.0924 35.3525 21.7551 32.6892 21.6051C31.6088 21.5426 31.7093 19.9303 32.7771 19.9928C36.2821 20.1803 38.2293 22.18 38.4052 25.767ZM40.9554 27.1794C41.081 21.88 37.7519 17.7306 31.4329 17.2681C30.3651 17.1931 30.4782 15.5808 31.546 15.6558C38.8323 16.1808 42.7141 21.1676 42.576 27.2169C42.5634 28.2917 40.9303 28.2417 40.9554 27.1794ZM46.8598 28.8542C46.8724 29.929 45.2392 29.9415 45.2392 28.8667C45.1638 18.6804 38.3424 13.1311 30.0636 13.0686C28.9958 13.0561 28.9958 11.4563 30.0636 11.4563C39.3222 11.5188 46.7719 17.8805 46.8598 28.8542ZM45.4402 41.1151V41.1401C44.0835 43.5148 41.5458 46.1395 38.9328 45.3021L38.9077 45.2646C36.257 44.5272 30.0134 41.3276 26.0687 38.203C24.0336 36.6032 22.1743 34.7159 20.7422 32.9036C19.4482 31.2914 18.1417 29.3791 16.8729 27.0794C14.197 22.2675 13.6066 20.1178 13.6066 20.1178C12.7649 17.5181 15.3905 14.9934 17.7899 13.6436H17.8151C18.9708 13.0436 20.0763 13.2436 20.8175 14.131C20.8175 14.131 22.3753 15.9808 23.0411 16.8932C23.6692 17.7431 24.5109 19.1054 24.9506 19.8678C25.7169 21.2301 25.2396 22.6174 24.4858 23.1924L22.9783 24.3922C22.212 25.0046 22.3125 26.142 22.3125 26.142C22.3125 26.142 24.5486 34.5534 32.9028 36.6782C32.9028 36.6782 34.0459 36.7782 34.6615 36.0158L35.8675 34.5159C36.4454 33.766 37.8399 33.2911 39.2092 34.0535C41.0559 35.0909 43.4051 36.7032 44.9628 38.1655C45.8422 38.8779 46.0432 39.9653 45.4402 41.1151Z" fill="#003641"/>
</svg>
